<svg width="80" height="80" viewBox="0 0 80 80" fill="none" xmlns="http://www.w3.org/2000/svg">
<rect width="80" height="80" rx="40" fill="white" fill-opacity="0.3"/>
<rect width="80" height="80" rx="40" fill="url(#paint0_linear_132_14578)"/>
<g clip-path="url(#clip0_132_14578)">
<path d="M40 80C62.0914 80 80 62.0914 80 40C80 17.9086 62.0914 0 40 0C17.9086 0 0 17.9086 0 40C0 62.0914 17.9086 80 40 80Z" fill="#934CF5"/>
<path d="M13.0453 9.76548L12.9687 12.4514C12.9502 13.0979 13.1518 13.7315 13.5406 14.2483L21.1968 24.4327L28.4375 18.9905L20.7812 8.80455C20.3938 8.28821 19.8431 7.91815 19.2187 7.75455L16.6234 7.07798C16.2072 6.97001 15.772 6.95726 15.3501 7.04066C14.9283 7.12406 14.5307 7.30148 14.1869 7.55971C13.8431 7.81795 13.5619 8.15037 13.3642 8.53226C13.1666 8.91414 13.0576 9.33566 13.0453 9.76548Z" fill="#E88032"/>
<path d="M15.4845 7.01562C15.3247 7.36429 15.237 7.74162 15.2267 8.125L15.1563 10.8125C15.139 11.4588 15.3406 12.092 15.7282 12.6094L23.3845 22.7953L21.197 24.4328L13.5407 14.2484C13.1527 13.7312 12.9512 13.0979 12.9688 12.4516L13.047 9.76562C13.0657 9.09398 13.3201 8.45035 13.7658 7.94754C14.2115 7.44472 14.8199 7.11481 15.4845 7.01562Z" fill="#CE6F30"/>
<path d="M21.726 10.0497L14.4785 15.4932L17.2786 19.2212L24.5261 13.7777L21.726 10.0497Z" fill="white"/>
<path d="M16.6611 13.8557L14.4797 15.4941L17.2798 19.2222L19.4612 17.5838L16.6611 13.8557Z" fill="#DDDAD9"/>
<path d="M65.3687 7.86094L62.7015 8.17344C62.0595 8.25005 61.4625 8.54197 61.0078 9.00156L52.0437 18.0531L58.4843 24.4297L67.4468 15.3781C67.9027 14.9196 68.1888 14.3194 68.2578 13.6766L68.5484 11.0062C68.5947 10.5789 68.5439 10.1466 68.4 9.74157C68.256 9.33654 68.0225 8.9692 67.7169 8.6669C67.4113 8.36461 67.0415 8.13514 66.6349 7.9956C66.2283 7.85605 65.7955 7.81002 65.3687 7.86094Z" fill="#E88032"/>
<path d="M68.4453 9.87173C68.0756 9.76513 67.6882 9.73378 67.3062 9.77954L64.6406 10.092C63.9982 10.1687 63.4006 10.4606 62.9453 10.9202L53.9812 19.9717L52.0437 18.053L61.0078 9.00142C61.4627 8.54214 62.0597 8.25027 62.7015 8.17329L65.3687 7.86079C66.036 7.78156 66.7099 7.93961 67.2724 8.30726C67.8348 8.67492 68.25 9.22874 68.4453 9.87173Z" fill="#CE6F30"/>
<path d="M66.3499 16.4902L59.9094 10.1123L56.6287 13.4253L63.0692 19.8031L66.3499 16.4902Z" fill="white"/>
<path d="M59.9135 10.1128L56.6328 13.4258L58.5713 15.3454L61.852 12.0324L59.9135 10.1128Z" fill="#DDDAD9"/>
<path d="M65.6406 29.8245C65.6406 29.8245 68.3203 32.9495 67.9016 37.8667L63.5109 35.2104C63.525 35.5526 63.5344 35.8979 63.5344 36.2448V72.3432C56.6979 77.3261 48.4565 80.0108 39.9969 80.0108C31.5372 80.0108 23.2958 77.3261 16.4594 72.3432V36.2495C16.4594 36.1807 16.4594 36.1135 16.4594 36.0448L13.4375 37.8667C13.025 33.0229 15.625 29.9167 15.6969 29.8276C15.5469 29.7713 15.3937 29.7193 15.2375 29.6713C15.1328 29.6417 15.0281 29.6151 14.925 29.5917C14.8187 29.5667 14.7109 29.5463 14.6031 29.5276L14.4359 29.501C14.3266 29.4838 14.2172 29.4698 14.1062 29.4588C13.9953 29.4463 13.8844 29.437 13.7734 29.4292C11.0844 29.2479 8.16875 30.2385 8.08594 30.2667C10.3469 24.3776 17.0469 22.8417 17.0469 22.8417L14.2812 19.2182C15.2552 19.1065 16.2369 19.0788 17.2156 19.1354C17.2688 19.1354 17.3208 19.1385 17.3719 19.1448C18.6124 19.2259 19.8435 19.4141 21.0516 19.7073C21.7156 19.8635 22.3016 20.0385 22.7703 20.1932C22.9047 20.0495 23.0406 19.9073 23.1781 19.7667C23.2812 19.6604 23.3859 19.5557 23.4906 19.4542C23.5953 19.3526 23.7031 19.2463 23.8031 19.1417C23.8729 19.0729 23.9448 19.0057 24.0188 18.9401C24.1031 18.8604 24.1891 18.7838 24.275 18.7057L24.4578 18.5495C24.5312 18.4838 24.6047 18.4182 24.6797 18.3557L24.8984 18.1713L24.9187 18.1557C25.0422 18.051 25.1688 17.9479 25.2953 17.8432C25.4714 17.7016 25.6505 17.5625 25.8328 17.426L26.0703 17.2495C26.2953 17.0838 26.5234 16.9224 26.7547 16.7651L26.8844 16.6776L27.0406 16.5729L27.3688 16.3604L27.4125 16.3323C27.5594 16.2401 27.7078 16.1495 27.8563 16.0588C28.0047 15.9682 28.1688 15.8713 28.325 15.7807C29.0065 15.3907 29.7074 15.0356 30.425 14.7167C34.5186 12.9 39.0457 12.2896 43.4743 12.9572C47.9029 13.6248 52.0489 15.5427 55.425 18.4854C56.1644 19.1295 56.8631 19.8189 57.5172 20.5495C59.1332 19.935 60.8146 19.5088 62.5281 19.2792C62.899 19.2292 63.2812 19.1891 63.675 19.1588C64.796 19.0692 65.9231 19.0875 67.0406 19.2135L64.2766 22.837C64.2766 22.837 70.9766 24.3729 73.2375 30.262C73.1562 30.2354 68.6219 28.6932 65.6406 29.8245Z" fill="#B0D46C"/>
<path d="M29.8202 15.0205C29.2046 16.133 28.6218 17.2929 28.0718 18.5002C27.8989 18.8783 27.7301 19.2611 27.5655 19.6486C26.3889 22.4194 25.4226 25.2749 24.6749 28.1908C23.6914 32.0191 23.0287 35.9227 22.6937 39.8611C22.5051 42.0486 22.4093 44.2783 22.4062 46.5502C22.4062 49.5705 22.5796 53.1658 22.9108 57.008C22.9968 57.9939 23.0921 58.9971 23.1983 60.0111C23.8062 65.8393 24.7499 72.0143 25.9796 77.4721C22.5878 76.2035 19.3848 74.4782 16.4593 72.3439V36.2502C16.4593 36.1814 16.4593 36.1143 16.4593 36.0455L13.4374 37.8674C13.0249 33.0236 15.6249 29.9174 15.6968 29.8283C15.5405 29.7705 15.3952 29.7205 15.239 29.6721C15.1343 29.6424 15.0296 29.6158 14.9265 29.5924C14.8202 29.5674 14.7124 29.5471 14.6046 29.5283L14.4374 29.5018C14.328 29.4846 14.2187 29.4705 14.1077 29.4596C13.9968 29.4471 13.8858 29.4377 13.7749 29.4299C11.0858 29.2486 8.17021 30.2393 8.0874 30.2674C10.3483 24.3783 17.0483 22.8424 17.0483 22.8424L14.2812 19.2189C15.2551 19.1072 16.2368 19.0795 17.2155 19.1361C17.2687 19.1361 17.3207 19.1393 17.3718 19.1455C18.6123 19.2266 19.8434 19.4148 21.0515 19.708C21.7155 19.8643 22.3015 20.0393 22.7702 20.1939C22.9046 20.0502 23.0405 19.908 23.178 19.7674C23.2812 19.6611 23.3858 19.5564 23.4905 19.4549C23.5952 19.3533 23.703 19.2471 23.803 19.1424C23.8728 19.0736 23.9447 19.0064 24.0187 18.9408C24.103 18.8611 24.189 18.7846 24.2749 18.7064L24.4577 18.5502C24.5312 18.4846 24.6046 18.4189 24.6796 18.3564L24.8983 18.1721L24.9187 18.1564C25.0421 18.0502 25.1687 17.9486 25.2952 17.8439C25.4713 17.7023 25.6504 17.5632 25.8327 17.4268L26.0702 17.2502C26.2952 17.0846 26.5233 16.9231 26.7546 16.7658L26.8827 16.6783L27.039 16.5736L27.3671 16.3611L27.4108 16.333C27.5577 16.2408 27.7062 16.1502 27.8546 16.0596C28.003 15.9689 28.1671 15.8721 28.3233 15.7814C28.8327 15.5174 29.3218 15.2596 29.8202 15.0205Z" fill="#A5C462"/>
<path d="M40.222 54.6197C50.0449 54.6197 58.0079 46.6567 58.0079 36.8338C58.0079 27.0109 50.0449 19.0479 40.222 19.0479C30.3991 19.0479 22.436 27.0109 22.436 36.8338C22.436 46.6567 30.3991 54.6197 40.222 54.6197Z" fill="#A5C462"/>
<path d="M57.1874 58.7277C56.1772 62.5182 53.9428 65.8686 50.8316 68.2578C47.7204 70.6471 43.9069 71.9413 39.9841 71.9391C36.0614 71.937 32.2493 70.6386 29.1407 68.246C26.0321 65.8533 23.8013 62.5005 22.7952 58.709C22.2718 56.7183 24.1202 54.8902 26.0937 55.4808L26.5327 55.6105C28.1873 56.0924 29.8656 56.4887 31.5609 56.798C33.5184 57.1576 35.4969 57.3919 37.4843 57.4996C39.1583 57.5965 40.8365 57.5996 42.5109 57.509C44.3074 57.4148 46.0969 57.216 47.8702 56.9136C49.565 56.6272 51.2434 56.2511 52.8984 55.7871C53.2265 55.6949 53.5531 55.5996 53.8812 55.4996C54.3327 55.3655 54.8119 55.3544 55.2692 55.4674C55.7265 55.5805 56.1453 55.8136 56.4823 56.1427C56.8194 56.4718 57.0624 56.8849 57.1864 57.3393C57.3104 57.7938 57.3107 58.2731 57.1874 58.7277Z" fill="#27273D"/>
<path d="M51.0828 68.0717C47.9334 70.5814 44.0255 71.948 39.9984 71.948C35.9713 71.948 32.0635 70.5814 28.9141 68.0717C32.0635 65.562 35.9713 64.1953 39.9984 64.1953C44.0255 64.1953 47.9334 65.562 51.0828 68.0717Z" fill="#DB1B1B"/>
<path d="M60.3047 52.2891C61.8105 52.2891 63.0312 51.0683 63.0312 49.5625C63.0312 48.0567 61.8105 46.8359 60.3047 46.8359C58.7988 46.8359 57.5781 48.0567 57.5781 49.5625C57.5781 51.0683 58.7988 52.2891 60.3047 52.2891Z" fill="#C5E286"/>
<path d="M60.3048 45.8127C61.3714 45.8127 62.236 44.948 62.236 43.8814C62.236 42.8148 61.3714 41.9502 60.3048 41.9502C59.2382 41.9502 58.3735 42.8148 58.3735 43.8814C58.3735 44.948 59.2382 45.8127 60.3048 45.8127Z" fill="#C5E286"/>
<path d="M40.2219 52.6186C48.9393 52.6186 56.0062 45.5516 56.0062 36.8342C56.0062 28.1167 48.9393 21.0498 40.2219 21.0498C31.5044 21.0498 24.4375 28.1167 24.4375 36.8342C24.4375 45.5516 31.5044 52.6186 40.2219 52.6186Z" fill="white"/>
<path d="M40.2218 47.5002C46.1122 47.5002 50.8874 42.725 50.8874 36.8346C50.8874 30.9441 46.1122 26.1689 40.2218 26.1689C34.3313 26.1689 29.5562 30.9441 29.5562 36.8346C29.5562 42.725 34.3313 47.5002 40.2218 47.5002Z" fill="#00E577"/>
<path d="M40.2219 45.4902C45.0026 45.4902 48.8782 41.6147 48.8782 36.834C48.8782 32.0533 45.0026 28.1777 40.2219 28.1777C35.4412 28.1777 31.5657 32.0533 31.5657 36.834C31.5657 41.6147 35.4412 45.4902 40.2219 45.4902Z" fill="#00B564"/>
<path d="M40.222 42.6432C43.4304 42.6432 46.0313 40.0422 46.0313 36.8338C46.0313 33.6254 43.4304 31.0244 40.222 31.0244C37.0135 31.0244 34.4126 33.6254 34.4126 36.8338C34.4126 40.0422 37.0135 42.6432 40.222 42.6432Z" fill="#27273D"/>
<path d="M40.2218 38.6799C41.2409 38.6799 42.0671 37.8537 42.0671 36.8346C42.0671 35.8154 41.2409 34.9893 40.2218 34.9893C39.2026 34.9893 38.3765 35.8154 38.3765 36.8346C38.3765 37.8537 39.2026 38.6799 40.2218 38.6799Z" fill="white"/>
<path d="M43.911 34.715C44.9301 34.715 45.7563 33.8889 45.7563 32.8697C45.7563 31.8506 44.9301 31.0244 43.911 31.0244C42.8918 31.0244 42.0657 31.8506 42.0657 32.8697C42.0657 33.8889 42.8918 34.715 43.911 34.715Z" fill="white"/>
<path d="M31.5625 56.7979V58.8291C31.5625 59.4959 31.2977 60.1353 30.8262 60.6068C30.3547 61.0783 29.7153 61.3432 29.0485 61.3432C28.3817 61.3432 27.7423 61.0783 27.2708 60.6068C26.7993 60.1353 26.5344 59.4959 26.5344 58.8291V55.6104C28.189 56.0922 29.8672 56.4886 31.5625 56.7979Z" fill="white"/>
<path d="M52.8985 55.792V58.8357C52.8985 59.5025 52.6336 60.142 52.1621 60.6135C51.6907 61.0849 51.0512 61.3498 50.3844 61.3498C49.7177 61.3498 49.0782 61.0849 48.6067 60.6135C48.1352 60.142 47.8704 59.5025 47.8704 58.8357V56.9186C49.5651 56.6321 51.2435 56.256 52.8985 55.792Z" fill="white"/>
<path d="M42.511 57.5141V61.1422C42.5114 61.8087 42.2471 62.4481 41.7763 62.9198C41.3054 63.3915 40.6666 63.657 40.0001 63.6578C39.6699 63.6576 39.343 63.5924 39.0381 63.4658C38.7331 63.3393 38.4561 63.154 38.2228 62.9204C37.9895 62.6868 37.8045 62.4095 37.6783 62.1044C37.5522 61.7993 37.4873 61.4723 37.4875 61.1422V57.5C39.1605 57.5983 40.8376 57.603 42.511 57.5141Z" fill="white"/>
</g>
<defs>
<linearGradient id="paint0_linear_132_14578" x1="40" y1="0" x2="40" y2="80" gradientUnits="userSpaceOnUse">
<stop stop-color="#0B0223" stop-opacity="0.48"/>
<stop offset="1" stop-color="#0B0223" stop-opacity="0.32"/>
</linearGradient>
<clipPath id="clip0_132_14578">
<rect width="80" height="80" fill="white"/>
</clipPath>
</defs>
</svg>
